<?xml version="1.0" standalone="no"?>
<!DOCTYPE svg PUBLIC "-//W3C//DTD SVG 20010904//EN"
 "http://www.w3.org/TR/2001/REC-SVG-20010904/DTD/svg10.dtd">
<svg version="1.0" xmlns="http://www.w3.org/2000/svg"
 width="120.000000pt" height="120.000000pt" viewBox="0 0 120.000000 120.000000"
 preserveAspectRatio="xMidYMid meet">

<g transform="translate(0.000000,120.000000) scale(0.100000,-0.100000)"
fill="#000000" stroke="none">
<path d="M315 800 c-17 -27 16 -30 296 -30 271 0 290 1 287 18 -3 16 -26 17
-290 20 -186 1 -289 -1 -293 -8z"/>
<path d="M315 610 c-17 -27 16 -30 296 -30 271 0 290 1 287 18 -3 16 -26 17
-290 20 -186 1 -289 -1 -293 -8z"/>
<path d="M513 414 c-3 -9 0 -20 8 -25 8 -5 95 -8 194 -6 173 2 180 3 180 22 0
19 -8 20 -188 23 -165 2 -188 1 -194 -14z"/>
</g>
</svg>
